<svg width="239" height="200" viewBox="0 0 239 200" fill="none" xmlns="http://www.w3.org/2000/svg">
<path d="M213.506 0C214.208 0 214.858 0.367517 215.22 0.96875L237.979 38.7959C238.363 39.4352 238.361 40.2359 237.971 40.8721L141.105 199.034C140.741 199.627 140.095 199.989 139.4 199.989L95.6828 200C94.9866 200 94.3404 199.639 93.9768 199.045L0.294173 46.0859C-0.104485 45.435 -0.0973001 44.6132 0.311751 43.9688L27.6321 0.927734C27.999 0.349804 28.636 7.54954e-06 29.3205 0H149.953L160.107 54.2451L165.102 128.406C130.706 158.542 98.2375 149.708 75.1418 133.191V94.9141L86.2453 108.205L75.1418 56.6377C75.1418 56.6377 52.061 131.439 59.3196 142.058C66.5784 152.676 78.5544 160.986 97.4289 165.188C119.794 168.223 132.208 166.724 154.179 159.879C171.158 152.599 185.689 125.449 185.689 125.449L175.617 0H213.506Z" fill="white"/>
</svg>
