<svg width="159" height="29" viewBox="0 0 159 29" fill="none" xmlns="http://www.w3.org/2000/svg">
<path d="M1.51705 23V5.54545H8.40341C9.72727 5.54545 10.8551 5.7983 11.7869 6.30398C12.7188 6.80398 13.429 7.5 13.9176 8.39204C14.4119 9.27841 14.6591 10.3011 14.6591 11.4602C14.6591 12.6193 14.4091 13.642 13.9091 14.5284C13.4091 15.4148 12.6847 16.1051 11.7358 16.5994C10.7926 17.0937 9.65057 17.3409 8.30966 17.3409H3.92045V14.3835H7.71307C8.4233 14.3835 9.00852 14.2614 9.46875 14.017C9.93466 13.767 10.2813 13.4233 10.5085 12.9858C10.7415 12.5426 10.858 12.0341 10.858 11.4602C10.858 10.8807 10.7415 10.375 10.5085 9.94318C10.2813 9.50568 9.93466 9.16761 9.46875 8.92898C9.00284 8.68466 8.41193 8.5625 7.69602 8.5625H5.20739V23H1.51705ZM20.6186 15.4318V23H16.9879V5.54545H20.5163V12.2188H20.6697C20.9652 11.446 21.4425 10.8409 22.1016 10.4034C22.7607 9.96023 23.5874 9.73864 24.5817 9.73864C25.4908 9.73864 26.2834 9.9375 26.9595 10.3352C27.6413 10.7273 28.1697 11.2926 28.5447 12.0312C28.9254 12.7642 29.1129 13.642 29.1072 14.6648V23H25.4766V15.3125C25.4822 14.5057 25.2777 13.8778 24.8629 13.429C24.4538 12.9801 23.88 12.7557 23.1413 12.7557C22.647 12.7557 22.2095 12.8608 21.8288 13.071C21.4538 13.2812 21.1584 13.5881 20.9425 13.9915C20.7322 14.3892 20.6243 14.8693 20.6186 15.4318ZM31.9645 23V9.90909H35.5952V23H31.9645ZM33.7884 8.22159C33.2486 8.22159 32.7855 8.04261 32.3991 7.68466C32.0185 7.32102 31.8281 6.88636 31.8281 6.38068C31.8281 5.88068 32.0185 5.4517 32.3991 5.09375C32.7855 4.73011 33.2486 4.54829 33.7884 4.54829C34.3281 4.54829 34.7884 4.73011 35.169 5.09375C35.5554 5.4517 35.7486 5.88068 35.7486 6.38068C35.7486 6.88636 35.5554 7.32102 35.169 7.68466C34.7884 8.04261 34.3281 8.22159 33.7884 8.22159ZM49.3956 13.642L46.0717 13.8466C46.0149 13.5625 45.8928 13.3068 45.7053 13.0795C45.5178 12.8466 45.2706 12.6619 44.9638 12.5256C44.6626 12.3835 44.3018 12.3125 43.8814 12.3125C43.3189 12.3125 42.8445 12.4318 42.4581 12.6705C42.0717 12.9034 41.8786 13.2159 41.8786 13.608C41.8786 13.9205 42.0036 14.1847 42.2536 14.4006C42.5036 14.6165 42.9325 14.7898 43.5405 14.9205L45.9098 15.3977C47.1825 15.6591 48.1314 16.0795 48.7564 16.6591C49.3814 17.2386 49.6939 18 49.6939 18.9432C49.6939 19.8011 49.4411 20.554 48.9354 21.2017C48.4354 21.8494 47.7479 22.3551 46.8729 22.7188C46.0036 23.0767 45.0007 23.2557 43.8643 23.2557C42.1314 23.2557 40.7507 22.8949 39.7223 22.1733C38.6996 21.446 38.1001 20.4574 37.924 19.2074L41.495 19.0199C41.603 19.5483 41.8643 19.9517 42.2791 20.2301C42.6939 20.5028 43.2251 20.6392 43.8729 20.6392C44.5092 20.6392 45.0206 20.517 45.407 20.2727C45.799 20.0227 45.9979 19.7017 46.0036 19.3097C45.9979 18.9801 45.8587 18.7102 45.5859 18.5C45.3132 18.2841 44.8928 18.1193 44.3246 18.0057L42.0575 17.554C40.7791 17.2983 39.8274 16.8551 39.2024 16.2244C38.5831 15.5937 38.2734 14.7898 38.2734 13.8125C38.2734 12.9716 38.5007 12.2472 38.9553 11.6392C39.4155 11.0312 40.0604 10.5625 40.8899 10.233C41.7251 9.90341 42.7024 9.73864 43.8217 9.73864C45.4751 9.73864 46.7763 10.0881 47.7251 10.7869C48.6797 11.4858 49.2365 12.4375 49.3956 13.642ZM55.6108 15.4318V23H51.9801V5.54545H55.5085V12.2188H55.6619C55.9574 11.446 56.4347 10.8409 57.0938 10.4034C57.7528 9.96023 58.5795 9.73864 59.5739 9.73864C60.483 9.73864 61.2756 9.9375 61.9517 10.3352C62.6335 10.7273 63.1619 11.2926 63.5369 12.0312C63.9176 12.7642 64.1051 13.642 64.0994 14.6648V23H60.4688V15.3125C60.4744 14.5057 60.2699 13.8778 59.8551 13.429C59.446 12.9801 58.8722 12.7557 58.1335 12.7557C57.6392 12.7557 57.2017 12.8608 56.821 13.071C56.446 13.2812 56.1506 13.5881 55.9347 13.9915C55.7244 14.3892 55.6165 14.8693 55.6108 15.4318ZM76.4936 10.5653C76.4254 9.87784 76.1328 9.34375 75.6158 8.96307C75.0987 8.58239 74.397 8.39204 73.5107 8.39204C72.9084 8.39204 72.3999 8.47727 71.9851 8.64773C71.5703 8.8125 71.2521 9.04261 71.0305 9.33807C70.8146 9.63352 70.7067 9.96875 70.7067 10.3438C70.6953 10.6562 70.7607 10.929 70.9027 11.1619C71.0504 11.3949 71.2521 11.5966 71.5078 11.767C71.7635 11.9318 72.0589 12.0767 72.3942 12.2017C72.7294 12.321 73.0874 12.4233 73.468 12.5085L75.0362 12.8835C75.7976 13.054 76.4964 13.2812 77.1328 13.5653C77.7692 13.8494 78.3203 14.1989 78.7862 14.6136C79.2521 15.0284 79.6129 15.517 79.8686 16.0795C80.13 16.642 80.2635 17.2869 80.2692 18.0142C80.2635 19.0824 79.9908 20.0085 79.451 20.7926C78.9169 21.571 78.1442 22.1761 77.1328 22.608C76.1271 23.0341 74.9141 23.2472 73.4936 23.2472C72.0845 23.2472 70.8572 23.0312 69.8118 22.5994C68.772 22.1676 67.9595 21.5284 67.3743 20.6818C66.7947 19.8295 66.4908 18.7756 66.4624 17.5199H70.0334C70.0732 18.1051 70.2408 18.5937 70.5362 18.9858C70.8374 19.3722 71.2379 19.6648 71.7379 19.8636C72.2436 20.0568 72.8146 20.1534 73.451 20.1534C74.076 20.1534 74.6186 20.0625 75.0788 19.8807C75.5447 19.6989 75.9055 19.446 76.1612 19.1222C76.4169 18.7983 76.5447 18.4261 76.5447 18.0057C76.5447 17.6136 76.4283 17.2841 76.1953 17.017C75.968 16.75 75.6328 16.5227 75.1896 16.3352C74.7521 16.1477 74.2152 15.9773 73.5788 15.8239L71.6783 15.3466C70.2067 14.9886 69.0447 14.429 68.1925 13.6676C67.3402 12.9062 66.9169 11.8807 66.9226 10.5909C66.9169 9.53409 67.1982 8.6108 67.7663 7.82102C68.3402 7.03125 69.1271 6.41477 70.1271 5.97159C71.1271 5.52841 72.2635 5.30682 73.5362 5.30682C74.8317 5.30682 75.9624 5.52841 76.9283 5.97159C77.8999 6.41477 78.6555 7.03125 79.1953 7.82102C79.7351 8.6108 80.0135 9.52557 80.0305 10.5653H76.4936ZM88.598 23.2557C87.2571 23.2557 86.1037 22.9716 85.1378 22.4034C84.1776 21.8295 83.4389 21.0341 82.9219 20.017C82.4105 19 82.1548 17.8295 82.1548 16.5057C82.1548 15.1648 82.4134 13.9886 82.9304 12.9773C83.4531 11.9602 84.1946 11.1676 85.1548 10.5994C86.1151 10.0256 87.2571 9.73864 88.581 9.73864C89.723 9.73864 90.723 9.94602 91.581 10.3608C92.4389 10.7756 93.1179 11.358 93.6179 12.108C94.1179 12.858 94.3935 13.7386 94.4446 14.75H91.0185C90.9219 14.0966 90.6662 13.571 90.2514 13.1733C89.8423 12.7699 89.3054 12.5682 88.6406 12.5682C88.0781 12.5682 87.5866 12.7216 87.1662 13.0284C86.7514 13.3295 86.4276 13.7699 86.1946 14.3494C85.9616 14.929 85.8452 15.6307 85.8452 16.4545C85.8452 17.2898 85.9588 18 86.1861 18.5852C86.419 19.1705 86.7457 19.6165 87.1662 19.9233C87.5866 20.2301 88.0781 20.3835 88.6406 20.3835C89.0554 20.3835 89.4276 20.2983 89.7571 20.1278C90.0923 19.9574 90.3679 19.7102 90.5838 19.3864C90.8054 19.0568 90.9503 18.6619 91.0185 18.2017H94.4446C94.3878 19.2017 94.1151 20.0824 93.6264 20.8438C93.1435 21.5994 92.4759 22.1903 91.6236 22.6165C90.7713 23.0426 89.7628 23.2557 88.598 23.2557ZM100.502 23.2472C99.6669 23.2472 98.9226 23.1023 98.2692 22.8125C97.6158 22.517 97.0987 22.0824 96.718 21.5085C96.343 20.929 96.1555 20.2074 96.1555 19.3438C96.1555 18.6165 96.2891 18.0057 96.5561 17.5114C96.8232 17.017 97.1868 16.6193 97.647 16.3182C98.1072 16.017 98.63 15.7898 99.2152 15.6364C99.8061 15.483 100.425 15.375 101.073 15.3125C101.835 15.233 102.448 15.1591 102.914 15.0909C103.38 15.017 103.718 14.9091 103.928 14.767C104.138 14.625 104.244 14.4148 104.244 14.1364V14.0852C104.244 13.5455 104.073 13.1278 103.732 12.8324C103.397 12.5369 102.92 12.3892 102.3 12.3892C101.647 12.3892 101.127 12.5341 100.741 12.8239C100.354 13.108 100.099 13.4659 99.9737 13.8977L96.6158 13.625C96.7862 12.8295 97.1214 12.142 97.6214 11.5625C98.1214 10.9773 98.7663 10.5284 99.5561 10.2159C100.352 9.89773 101.272 9.73864 102.317 9.73864C103.045 9.73864 103.741 9.82386 104.406 9.99432C105.076 10.1648 105.67 10.429 106.187 10.7869C106.71 11.1449 107.121 11.6051 107.423 12.1676C107.724 12.7244 107.874 13.392 107.874 14.1705V23H104.431V21.1847H104.329C104.119 21.5938 103.837 21.9545 103.485 22.267C103.133 22.5739 102.71 22.8153 102.215 22.9915C101.721 23.1619 101.15 23.2472 100.502 23.2472ZM101.542 20.7415C102.076 20.7415 102.548 20.6364 102.957 20.4261C103.366 20.2102 103.687 19.9205 103.92 19.5568C104.153 19.1932 104.269 18.7812 104.269 18.321V16.9318C104.156 17.0057 103.999 17.0739 103.8 17.1364C103.607 17.1932 103.388 17.2472 103.144 17.2983C102.9 17.3437 102.656 17.3864 102.411 17.4261C102.167 17.4602 101.945 17.4915 101.746 17.5199C101.32 17.5824 100.948 17.6818 100.63 17.8182C100.312 17.9545 100.065 18.1392 99.8885 18.3722C99.7124 18.5994 99.6243 18.8835 99.6243 19.2244C99.6243 19.7188 99.8033 20.0966 100.161 20.358C100.525 20.6136 100.985 20.7415 101.542 20.7415ZM114.322 15.4318V23H110.691V9.90909H114.151V12.2188H114.305C114.594 11.4574 115.08 10.8551 115.762 10.4119C116.444 9.96307 117.271 9.73864 118.242 9.73864C119.151 9.73864 119.944 9.9375 120.62 10.3352C121.296 10.733 121.822 11.3011 122.197 12.0398C122.572 12.7727 122.759 13.6477 122.759 14.6648V23H119.129V15.3125C119.134 14.5114 118.93 13.8864 118.515 13.4375C118.1 12.983 117.529 12.7557 116.802 12.7557C116.313 12.7557 115.881 12.8608 115.506 13.071C115.137 13.2812 114.847 13.5881 114.637 13.9915C114.433 14.3892 114.327 14.8693 114.322 15.4318Z" fill="white"/>
<path d="M155.015 1C155.734 1.00011 156.397 1.38596 156.753 2.01074L158.674 5.38672C159.026 6.00484 159.023 6.76359 158.666 7.37891L147.274 27.0352C146.917 27.6522 146.257 28.0322 145.544 28.0322H141.971C141.257 28.0322 140.598 27.6523 140.24 27.0352L129.27 8.10547C128.905 7.47567 128.911 6.6972 129.286 6.07324L131.75 1.9707C132.112 1.36868 132.763 1 133.465 1H147.903L149.202 8.33203L149.841 18.3564C145.441 22.4296 141.288 21.2354 138.334 19.0029V13.8291L139.755 15.625L138.334 8.65527C138.327 8.68038 135.383 18.7677 136.311 20.2012C137.239 21.6363 138.771 22.7603 141.185 23.3281C144.045 23.7385 145.633 23.5355 148.443 22.6104C150.615 21.6264 152.474 17.9561 152.474 17.9561L151.186 1H155.015Z" fill="white"/>
</svg>
